<svg version="1.1" id="Layer_1" xmlns="http://www.w3.org/2000/svg" xmlns:xlink="http://www.w3.org/1999/xlink" x="0px" y="0px"
	 width="430.479px" height="742.462px" viewBox="0 0 430.479 742.462" enable-background="new 0 0 430.479 742.462"
	 xml:space="preserve">
<g>
	<path fill-rule="evenodd" clip-rule="evenodd" d="M215.239,38.225c4.818-0.841,3.02-14.25,6.945,1.306
		c24.382,202.694,206.215,304.361,199.715,511.361c4.5,88-71.152,154.206-137.918,178.672
		c48.418-73.672,14.578-119.672-15.082-138.672c-61.5-46-193,23-110,138.672c-86.303-4.672-140.86-115.358-144.5-203.672
		c-5.041-122.304,89.5-221,147.254-333.377C189.872,137.607,195.621,83.61,215.239,38.225z M158.566,283.558
		c-15.145,22.225-29.524,41.98-51.014,78.949c-17.562,30.978-9.141,12.198-26.652,45.884c-17.826,29.501-28,50-28.13,81.933
		c14-32,32.884-52.083,77.13-74.433c66.5-37,221.02-14.445,251.335,82.334c-13.064-133.95-102.668-186-163.086-339.334
		C211.119,188.274,167.754,268.628,158.566,283.558z M69.399,550.391c-10,41.637,6.418,105.065,33.5,119.5
		c-38.5-180,261.607-204.44,237.925,0.348c85.075-104.848-1.425-242.348-150.925-229.848
		C133.899,445.891,81.569,490.511,69.399,550.391"/>
	<path fill-rule="evenodd" clip-rule="evenodd" d="M192.654,617.151c32.136-17.012,97.825-0.234,70.65,66.398
		c-10.869,26.701-46.785,29.063-59.636,24.465C151.068,687.094,161.464,631.802,192.654,617.151z"/>
</g>
</svg>
