<?xml version="1.0" encoding="UTF-8"?>
<svg width="32px" height="30px" viewBox="0 0 32 30" version="1.1" xmlns="http://www.w3.org/2000/svg" xmlns:xlink="http://www.w3.org/1999/xlink">
    <!-- Generator: Sketch 41.2 (35397) - http://www.bohemiancoding.com/sketch -->
    <title>Group 2</title>
    <desc>Created with Sketch.</desc>
    <defs></defs>
    <g id="JJ-logo">
        <path d="M32.9426772,0.683828585 C31.3180074,1.33486781 29.9627299,2.38164804 28.7872744,3.58180846 C28.1958657,4.18569802 27.6724867,4.92528663 27.3148876,5.72079361 C26.5950541,7.32258873 26.4386811,9.69832848 26.1698342,11.8962507 C26.0435907,12.9266436 25.8339119,13.9959924 25.6789023,15.0703724 C25.5196664,16.1746523 25.5024885,17.2970445 25.3518415,18.4167054 C25.0600908,20.5825716 24.5851097,22.5354018 23.7484396,24.0746661 C22.8835486,25.6661113 21.6851894,26.8484469 20.1494081,27.6626412 C17.069802,29.2951986 12.7347135,29.7293206 7.87951802,29.4911285 C5.62540287,29.3805856 3.26549401,29.5021972 0.942940142,29.4567725 C3.34906559,28.1969563 5.64271705,26.8858216 7.45416183,24.9373039 C8.03261898,24.3150145 8.70950792,23.6960313 9.15558659,22.9708176 C9.8052091,21.9145499 9.90023259,20.5275158 10.0717384,18.9343456 C10.2349279,17.4179374 10.3652614,15.8167172 10.4316552,14.3458775 C10.5733042,11.2098492 11.050194,8.27851959 11.4786858,5.51393879 C10.2609674,5.45097673 8.95395139,5.47943903 7.65048007,5.47943903 C6.35450701,5.47943903 4.98014298,5.30248401 3.88771377,5.58293831 C2.72316486,5.88207999 1.86672653,6.9024104 1.13925838,7.6874237 C1.12467085,7.70309234 1.11444594,7.89355977 1.04109926,7.75642322 C1.79583384,5.75184339 2.45799891,3.62119569 3.65867582,2.23646155 C4.07217112,1.75964611 4.66753345,1.18896258 5.32738087,0.959970417 C5.87311832,0.770509233 6.71265147,0.698634732 7.38872241,0.649472573 C9.46356083,0.49867987 11.6526456,0.649472573 13.801785,0.649472573 C20.1188697,0.649328824 26.6847606,0.681097353 32.9426772,0.683828585 Z M17.1717785,5.58279456 C16.558693,7.97032173 16.4065463,10.8530642 16.0267251,13.8282373 C15.848948,15.2203026 15.7571965,16.719461 15.6668083,18.1752071 C15.5742388,19.6655968 15.5216146,21.1571364 15.0778535,22.3151784 C14.9983719,22.5227519 14.8230488,22.7298942 14.7179368,22.9708176 C14.1771073,24.2097902 13.3640226,25.4805314 12.3948376,26.213795 C11.8876821,26.5976049 11.2805952,26.8037409 10.7261325,27.2142881 C13.0121494,27.1089201 14.6550877,26.362719 16.1576039,25.4548003 C16.4959802,25.2503892 16.8590326,25.0077409 17.2046345,24.7303053 C17.5466918,24.4558885 17.9725933,24.1804654 18.1862257,23.9023111 C18.3959045,23.6294755 18.6534359,23.0636794 18.8406198,22.62582 C19.2158058,21.7485198 19.5528188,20.7700203 19.6913322,19.7623398 C20.0205743,17.3687752 20.0463411,14.8524489 20.4766052,12.4483906 C20.905097,10.0549698 21.318865,7.73457337 21.654651,5.51393879 C20.197806,5.48590774 18.7312815,5.46837036 17.2374905,5.47943903 C17.1911376,5.48835147 17.1999992,5.55490726 17.1717785,5.58279456 Z" id="Shape" fill="#000000"></path>
    </g>
</svg>
